<svg width="1600" height="800" viewBox="0 0 1600 800" fill="none" xmlns="http://www.w3.org/2000/svg">
  <rect width="1600" height="800" fill="#090909"/>
  <rect x="48" y="48" width="1504" height="704" stroke="#2A2A2A" stroke-width="2"/>
  <path d="M0 144H1600" stroke="#1F1F1F" stroke-width="2"/>
  <path d="M0 400H1600" stroke="#151515" stroke-width="2"/>
  <path d="M0 656H1600" stroke="#1F1F1F" stroke-width="2"/>
  <path d="M228 0V800" stroke="#1A1A1A" stroke-width="2"/>
  <path d="M800 0V800" stroke="#111111" stroke-width="2"/>
  <path d="M1372 0V800" stroke="#1A1A1A" stroke-width="2"/>
  <rect x="120" y="144" width="420" height="20" fill="#F5F5F5" fill-opacity="0.9"/>
  <rect x="120" y="196" width="280" height="12" fill="#6B7280"/>
  <rect x="120" y="284" width="720" height="2" fill="#3F3F46"/>
  <rect x="120" y="328" width="560" height="16" fill="#E5E7EB" fill-opacity="0.8"/>
  <rect x="120" y="372" width="690" height="16" fill="#A1A1AA" fill-opacity="0.7"/>
  <rect x="120" y="416" width="620" height="16" fill="#A1A1AA" fill-opacity="0.45"/>
  <rect x="120" y="528" width="126" height="38" stroke="#52525B"/>
  <rect x="270" y="528" width="172" height="38" stroke="#52525B"/>
  <rect x="1280" y="120" width="180" height="48" fill="#F4F4F5" fill-opacity="0.08" stroke="#3F3F46"/>
  <text x="1370" y="151" fill="#F4F4F5" fill-opacity="0.75" font-family="JetBrains Mono, monospace" font-size="22" letter-spacing="4" text-anchor="middle">BLOG</text>
</svg>
