<svg width="1600" height="800" viewBox="0 0 1600 800" fill="none" xmlns="http://www.w3.org/2000/svg">
  <rect width="1600" height="800" fill="#060606"/>
  <rect x="64" y="64" width="1472" height="672" stroke="#2E2E2E" stroke-width="2"/>
  <path d="M100 580C180 500 260 500 340 580C420 660 500 660 580 580C660 500 740 500 820 580C900 660 980 660 1060 580C1140 500 1220 500 1300 580C1380 660 1460 660 1540 580" stroke="#CFCFD4" stroke-width="6" stroke-opacity="0.65"/>
  <path d="M100 580H1540" stroke="#1B1B1B" stroke-width="2"/>
  <path d="M160 180V640" stroke="#181818" stroke-width="2"/>
  <path d="M520 180V640" stroke="#181818" stroke-width="2"/>
  <path d="M880 180V640" stroke="#181818" stroke-width="2"/>
  <path d="M1240 180V640" stroke="#181818" stroke-width="2"/>
  <rect x="120" y="120" width="300" height="18" fill="#F4F4F5" fill-opacity="0.9"/>
  <rect x="120" y="160" width="190" height="10" fill="#71717A"/>
  <rect x="1260" y="116" width="196" height="52" fill="#F4F4F5" fill-opacity="0.07" stroke="#3F3F46"/>
  <text x="1358" y="148" fill="#F4F4F5" fill-opacity="0.78" font-family="JetBrains Mono, monospace" font-size="22" letter-spacing="4" text-anchor="middle">SIGNAL</text>
</svg>
