<svg width="1600" height="800" viewBox="0 0 1600 800" fill="none" xmlns="http://www.w3.org/2000/svg">
  <rect width="1600" height="800" fill="#070707"/>
  <rect x="56" y="56" width="1488" height="688" stroke="#2F2F2F" stroke-width="2"/>
  <path d="M0 200H1600" stroke="#171717" stroke-width="2"/>
  <path d="M0 400H1600" stroke="#101010" stroke-width="2"/>
  <path d="M0 600H1600" stroke="#171717" stroke-width="2"/>
  <path d="M240 0V800" stroke="#181818" stroke-width="2"/>
  <path d="M800 0V800" stroke="#111111" stroke-width="2"/>
  <path d="M1360 0V800" stroke="#181818" stroke-width="2"/>
  <rect x="120" y="120" width="236" height="34" fill="#FAFAFA"/>
  <rect x="120" y="186" width="150" height="14" fill="#71717A"/>
  <rect x="120" y="290" width="960" height="2" fill="#3F3F46"/>
  <rect x="120" y="340" width="740" height="18" fill="#E4E4E7" fill-opacity="0.92"/>
  <rect x="120" y="390" width="680" height="18" fill="#A1A1AA" fill-opacity="0.72"/>
  <rect x="120" y="440" width="610" height="18" fill="#A1A1AA" fill-opacity="0.48"/>
  <rect x="120" y="548" width="154" height="42" stroke="#52525B"/>
  <rect x="300" y="548" width="190" height="42" stroke="#52525B"/>
  <rect x="1260" y="112" width="196" height="52" fill="#F4F4F5" fill-opacity="0.07" stroke="#3F3F46"/>
  <text x="1358" y="145" fill="#F4F4F5" fill-opacity="0.78" font-family="JetBrains Mono, monospace" font-size="24" letter-spacing="4" text-anchor="middle">SYSTEMS</text>
</svg>
